<?xml version="1.0" encoding="UTF-8" standalone="no"?><!DOCTYPE svg PUBLIC "-//W3C//DTD SVG 1.1//EN" "http://www.w3.org/Graphics/SVG/1.1/DTD/svg11.dtd"><svg width="100%" height="100%" viewBox="0 0 1024 1024" version="1.1" xmlns="http://www.w3.org/2000/svg" xmlns:xlink="http://www.w3.org/1999/xlink" xml:space="preserve" xmlns:serif="http://www.serif.com/" style="fill-rule:evenodd;clip-rule:evenodd;stroke-linejoin:round;stroke-miterlimit:1.41421;"><g><ellipse cx="512" cy="512" rx="487.813" ry="483.59" style="fill:#00b8ff;"/><path d="M735.987,381.912c4.888,-25.201 -11.838,-49.283 -37.329,-53.735c-25.491,-4.453 -50.16,12.384 -55.048,37.586l-56.168,289.623c-4.888,25.202 11.839,49.283 37.33,53.736c25.491,4.462 50.149,-12.385 55.037,-37.586l56.178,-289.624Z" style="fill:#fff;"/><path d="M583.794,381.912c4.888,-25.201 -11.839,-49.283 -37.33,-53.735c-25.491,-4.453 -50.149,12.384 -55.037,37.586l-56.178,289.623c-4.888,25.202 11.838,49.283 37.329,53.736c25.492,4.462 50.16,-12.385 55.048,-37.586l56.168,-289.624Z" style="fill:#fff;"/><path d="M431.61,381.912c4.888,-25.201 -11.838,-49.283 -37.329,-53.735c-25.492,-4.453 -50.16,12.384 -55.048,37.586l-56.178,289.623c-4.888,25.202 11.839,49.283 37.33,53.736c25.491,4.462 50.159,-12.385 55.047,-37.586l56.178,-289.624Z" style="fill:#fff;"/><ellipse cx="789.547" cy="352.229" rx="25.104" ry="24.769" style="fill:#fff;"/><ellipse cx="226.59" cy="685.07" rx="25.104" ry="24.769" style="fill:#fff;"/></g></svg>