<?xml version="1.0" encoding="UTF-8" standalone="no"?><!DOCTYPE svg PUBLIC "-//W3C//DTD SVG 1.1//EN" "http://www.w3.org/Graphics/SVG/1.1/DTD/svg11.dtd"><svg width="100%" height="100%" viewBox="0 0 389 99" version="1.1" xmlns="http://www.w3.org/2000/svg" xmlns:xlink="http://www.w3.org/1999/xlink" xml:space="preserve" xmlns:serif="http://www.serif.com/" style="fill-rule:evenodd;clip-rule:evenodd;stroke-linejoin:round;stroke-miterlimit:1.41421;"><g><circle cx="49.2" cy="49.2" r="49.2" style="fill:#00b8ff;"/><path d="M71.791,35.965c0.493,-2.564 -1.194,-5.014 -3.765,-5.467c-2.571,-0.453 -5.059,1.26 -5.552,3.824l-5.665,29.466c-0.493,2.564 1.194,5.014 3.765,5.467c2.571,0.454 5.058,-1.26 5.551,-3.824l5.666,-29.466Z" style="fill:#fff;"/><path d="M56.441,35.965c0.493,-2.564 -1.194,-5.014 -3.765,-5.467c-2.571,-0.453 -5.058,1.26 -5.551,3.824l-5.666,29.466c-0.493,2.564 1.194,5.014 3.765,5.467c2.571,0.454 5.059,-1.26 5.552,-3.824l5.665,-29.466Z" style="fill:#fff;"/><path d="M41.092,35.965c0.493,-2.564 -1.194,-5.014 -3.765,-5.467c-2.571,-0.453 -5.059,1.26 -5.552,3.824l-5.666,29.466c-0.493,2.564 1.194,5.014 3.765,5.467c2.571,0.454 5.059,-1.26 5.552,-3.824l5.666,-29.466Z" style="fill:#fff;"/><ellipse cx="77.193" cy="32.945" rx="2.532" ry="2.52" style="fill:#fff;"/><ellipse cx="20.414" cy="66.808" rx="2.532" ry="2.52" style="fill:#fff;"/></g><text x="114.147px" y="65.923px" style="font-family:'Graphik-Regular', 'Graphik', sans-serif;font-size:71.59px;fill:#00b8ff;">m<tspan x="174.998px 213.943px 252.458px 293.05px 314.598px 352.469px " y="65.923px 65.923px 65.923px 65.923px 65.923px 65.923px ">ongrov</tspan></text></svg>